<!DOCTYPE svg PUBLIC "-//W3C//DTD SVG 1.1//EN" "http://www.w3.org/Graphics/SVG/1.1/DTD/svg11.dtd">
<!-- Uploaded to: SVG Repo, www.svgrepo.com, Transformed by: SVG Repo Mixer Tools -->
<svg fill="#ff0019" height="800px" width="800px" version="1.1" id="Layer_1" xmlns="http://www.w3.org/2000/svg" xmlns:xlink="http://www.w3.org/1999/xlink" viewBox="0 0 512 512" xml:space="preserve" stroke="#ff0019">
<g id="SVGRepo_bgCarrier" stroke-width="0"/>
<g id="SVGRepo_tracerCarrier" stroke-linecap="round" stroke-linejoin="round"/>
<g id="SVGRepo_iconCarrier"> <g> <g> <path d="M488.103,34.286c-4.082-4.082-10.696-4.082-14.778,0l-92.267,92.268C333.23,61.054,283.218,7.538,279.225,3.291 C277.25,1.191,274.495,0,271.612,0c-2.883,0-5.638,1.191-7.612,3.291c-7.796,8.291-190.919,204.271-190.919,310.747 c0,34.689,9.022,67.303,24.806,95.684l-73.991,73.992c-4.08,4.079-4.08,10.696,0,14.776c2.041,2.041,4.714,3.061,7.389,3.061 c2.675,0,5.348-1.02,7.389-3.061l70.644-70.646C145.288,478.692,204.605,512,271.612,512 c109.471,0,198.531-88.806,198.531-197.962c0-47.212-36.005-112.013-76.763-170.255l94.723-94.722 C492.184,44.982,492.184,38.365,488.103,34.286z M93.98,314.038c0-40.046,31.76-103.75,91.848-184.224 c35.124-47.038,70.631-87.204,85.784-103.916c15.133,16.686,50.56,56.758,85.67,103.763c2.999,4.015,5.907,7.974,8.764,11.906 L113.342,394.268C100.992,370.163,93.98,342.911,93.98,314.038z M449.245,314.038c0,97.633-79.686,177.064-177.633,177.064 c-61.258,0-115.371-31.071-147.318-78.232l254.043-254.043C424.837,225.651,449.245,278.931,449.245,314.038z"/> </g> </g> </g>
</svg>